inDegrees=yes
name=ik_Shooting_orientations.mot
DataType=double
version=3
OpenSimVersion=4.3-2021-08-27-4bc7ad9
endheader
time	pelvis_tilt	pelvis_list	pelvis_rotation	pelvis_tx	pelvis_ty	pelvis_tz	hip_flexion_r	hip_adduction_r	hip_rotation_r	knee_angle_r	knee_angle_r_beta	ankle_angle_r	subtalar_angle_r	mtp_angle_r	hip_flexion_l	hip_adduction_l	hip_rotation_l	knee_angle_l	knee_angle_l_beta	ankle_angle_l	subtalar_angle_l	mtp_angle_l	lumbar_extension	lumbar_bending	lumbar_rotation	arm_flex_r	arm_add_r	arm_rot_r	elbow_flex_r	pro_sup_r	wrist_flex_r	wrist_dev_r	arm_flex_l	arm_add_l	arm_rot_l	elbow_flex_l	pro_sup_l	wrist_flex_l	wrist_dev_l
7.649999999999881	38.28492546296138	53.69894935055565	27.05576214836621	0	0.9399999999999999	0	119.9901791416421	-49.99646161593493	39.99704224524113	32.34953515193145	0.5646058998908479	-4.143866035782663	0	0	-29.99507522509738	-49.98771216969681	13.08902838774979	32.34953515193145	0.5646058998908479	-4.143866035782663	0	0	0	0	0	0	-5.315656249430694	0	40.42645428708488	33.25822552453226	0	0	0	-5.315656249430694	0	40.42645428708488	33.25822552453226	0	0
7.659999999999881	38.49275833271343	53.76916035313074	26.80933069096749	0	0.9399999999999999	0	119.9902060404546	-49.99647041474456	39.99703080885286	32.35384406552385	0.5646811046202193	-4.144464170825223	0	0	-29.99506170481378	-49.98756069909889	12.96406624936028	32.35384406552385	0.5646811046202193	-4.144464170825223	0	0	0	0	0	0	-5.316441943595418	0	40.43323987704164	33.26357590469726	0	0	0	-5.316441943595418	0	40.43323987704164	33.26357590469726	0	0
7.669999999999881	52.04691504376687	48.71200946189649	9.868719578861898	0	0.9399999999999999	0	119.9574039763121	-49.99573347983138	39.99703420658132	32.39108689089648	0.5653311145457168	-4.149660141911188	0	0	-29.99645744344875	-49.99082141101851	11.5837696931798	32.39108689089648	0.5653311145457168	-4.149660141911188	0	0	0	0	0	0	-5.323226116875896	0	40.49227188829737	33.31013740063149	0	0	0	-5.323226116875896	0	40.49227188829737	33.31013740063149	0	0
7.679999999999881	41.79280437462135	45.53905066095669	23.76994783003921	0	0.9399999999999999	0	119.9873307419755	-49.99703404088208	39.99668766724044	32.40685855963137	0.5656063820936745	-4.151867085546652	0	0	-29.9955231423215	-49.99212787333785	6.466265040558189	32.40685855963137	0.5656063820936745	-4.151867085546652	0	0	0	0	0	0	-5.326101233279956	0	40.51729939372932	33.3298986870799	0	0	0	-5.326101233279956	0	40.51729939372932	33.3298986870799	0	0
7.68999999999988	39.0302391819291	53.83943191869359	26.00012429489088	0	0.9399999999999999	0	119.9902234259537	-49.99648923774686	39.99701252307282	32.43787830594059	0.5661477787999039	-4.156186852242095	0	0	-29.99501791857471	-49.98727692322925	12.08449997377458	32.43787830594059	0.5661477787999039	-4.156186852242095	0	0	0	0	0	0	-5.331759542747937	0	40.56650183245896	33.36865843439296	0	0	0	-5.331759542747937	0	40.56650183245896	33.36865843439296	0	0
7.69999999999988	30.72393694338401	42.2078186376722	32.21573579406284	0	0.9399999999999999	0	119.9940781077038	-49.99740834625692	39.99553244041886	32.52236987905749	0.5676224349409833	-4.167816296710142	0	0	-29.99448519100489	-49.98884229409121	-0.4565368492088605	32.52236987905749	0.5676224349409833	-4.167816296710142	0	0	0	0	0	0	-5.347219553739802	0	40.70026267038384	33.47346354901627	0	0	0	-5.347219553739802	0	40.70026267038384	33.47346354901627	0	0
7.70999999999988	37.43973766819211	45.16009220528269	30.19765801330659	0	0.9399999999999999	0	119.9904048253938	-49.99738406688353	39.99662642648782	32.53866136406793	0.5679067749944546	-4.170069661767454	0	0	-29.99459779566261	-49.99246998027993	4.93375619329755	32.53866136406793	0.5679067749944546	-4.170069661767454	0	0	0	0	0	0	-5.350202700970475	0	40.72609794706155	33.49374312755147	0	0	0	-5.350202700970475	0	40.72609794706155	33.49374312755147	0	0
7.71999999999988	28.13235440483432	54.5697814504196	34.61257713583036	0	0.9399999999999999	0	119.9942353032209	-49.99663559561095	39.99657958922933	32.55979056055303	0.5682755490414205	-4.172989254621456	0	0	-29.99383585191831	-49.95946634204127	8.866132898453527	32.55979056055303	0.5682755490414205	-4.172989254621456	0	0	0	0	0	0	-5.354073598008107	0	40.75961945478973	33.52003831139442	0	0	0	-5.354073598008107	0	40.75961945478973	33.52003831139442	0	0
7.72999999999988	51.90273082868388	57.93418421030844	9.245986749162601	0	0.9399999999999999	0	119.9803071016521	-49.994632394236	39.99728996263651	32.65011083333761	0.5698519351828109	-4.18528432673113	0	0	-29.99598994877104	-49.98065638154649	15.85054005387384	32.65011083333761	0.5698519351828109	-4.18528432673113	0	0	0	0	0	0	-5.370664018719886	0	40.90239706858956	33.63132294132992	0	0	0	-5.370664018719886	0	40.90239706858956	33.63132294132992	0	0
7.739999999999879	44.14373734373783	55.56259125147694	19.1800476990252	0	0.9399999999999999	0	119.9876118420749	-49.99601333915054	39.99711721791136	32.66592213245183	0.5701278944113717	-4.187441127889918	0	0	-29.99532904438079	-49.98447215839765	12.32435357313686	32.66592213245183	0.5701278944113717	-4.187441127889918	0	0	0	0	0	0	-5.373572920063895	0	40.92741799286124	33.65083629657482	0	0	0	-5.373572920063895	0	40.92741799286124	33.65083629657482	0	0
7.749999999999879	40.35158160359452	53.8371319796653	24.07449348783089	0	0.9399999999999999	0	119.9898455794369	-49.9965203124024	39.99699094114501	32.67864078521426	0.5703498767784939	-4.189163725716025	0	0	-29.99483382296878	-49.98629491871201	10.22511710302414	32.67864078521426	0.5703498767784939	-4.189163725716025	0	0	0	0	0	0	-5.375915122343486	0	40.94749609889566	33.66645119234792	0	0	0	-5.375915122343486	0	40.94749609889566	33.66645119234792	0	0
7.759999999999879	32.94713024505772	57.58513063803022	33.42595863043746	0	0.9399999999999999	0	119.9925697293925	-49.99665923467501	39.99710133568206	32.71261433246364	0.5709428270365774	-4.19375358095879	0	0	-29.99339562044024	-49.97979874438153	12.31497481908112	32.71261433246364	0.5709428270365774	-4.19375358095879	0	0	0	0	0	0	-5.382174324826723	0	41.00115756623283	33.70812347158723	0	0	0	-5.382174324826723	0	41.00115756623283	33.70812347158723	0	0
7.769999999999879	43.54506009297882	45.00539964259553	21.16144444453003	0	0.9399999999999999	0	119.9862463864494	-49.99710172546388	39.99661158445824	32.77427707398348	0.5720190449019048	-4.201991577244882	0	0	-29.99536194146508	-49.99194635571612	3.888812743845115	32.77427707398348	0.5720190449019048	-4.201991577244882	0	0	0	0	0	0	-5.393556730258672	0	41.09831523110559	33.78320921441267	0	0	0	-5.393556730258672	0	41.09831523110559	33.78320921441267	0	0
7.779999999999879	34.37315845290428	57.60501560811194	26.50796509715341	0	0.9399999999999999	0	119.9933522706849	-49.99606887086196	39.99671603570636	32.79883652420052	0.5724476881706718	-4.205294881612303	0	0	-29.99444279485152	-49.8645786079632	9.815102319681744	32.79883652420052	0.5724476881706718	-4.205294881612303	0	0	0	0	0	0	-5.398094730277713	0	41.13713754261731	33.81327872162331	0	0	0	-5.398094730277713	0	41.13713754261731	33.81327872162331	0	0
7.789999999999878	41.28296864588741	53.93848578581964	22.90886401704432	0	0.9399999999999999	0	119.9899117873235	-49.99657616615981	39.99694489399121	32.81100447632983	0.5726600589985533	-4.206931102916768	0	0	-29.99474920640263	-49.98486821934615	9.665448255728716	32.81100447632983	0.5726600589985533	-4.206931102916768	0	0	0	0	0	0	-5.40034478951972	0	41.15637070232016	33.82817360375762	0	0	0	-5.40034478951972	0	41.15637070232016	33.82817360375762	0	0
7.799999999999878	41.45553586303312	53.94056699884322	22.64286545552814	0	0.9399999999999999	0	119.9898751828838	-49.99660025140792	39.99693848495894	32.81308748826627	0.5726964144152026	-4.207201358988027	0	0	-29.99473626896691	-49.9844308331094	9.636931806038396	32.81308748826627	0.5726964144152026	-4.207201358988027	0	0	0	0	0	0	-5.400731492122617	0	41.15960277235003	33.83064718022206	0	0	0	-5.400731492122617	0	41.15960277235003	33.83064718022206	0	0
7.809999999999878	30.02907885743033	54.98731893790426	31.92041935938526	0	0.9399999999999999	0	119.9942556973092	-49.99671815954438	39.9964579483299	32.81898211521106	0.572799295063566	-4.207978056612646	0	0	-29.99351766731754	-49.92419781793313	7.282664557508427	32.81898211521106	0.572799295063566	-4.207978056612646	0	0	0	0	0	0	-5.401824218508668	0	41.16882354118619	33.8377399159125	0	0	0	-5.401824218508668	0	41.16882354118619	33.8377399159125	0	0
